<svg width="69" height="26" viewBox="0 0 69 26" fill="none" xmlns="http://www.w3.org/2000/svg">
<g clip-path="url(#clip0_6726_1232)">
<path fill-rule="evenodd" clip-rule="evenodd" d="M64.9486 10.407C64.9486 9.676 65.5256 9.079 66.2186 9.079C66.9296 9.079 67.4876 9.676 67.4876 10.407C67.4876 11.137 66.9296 11.734 66.2176 11.734C65.5256 11.754 64.9476 11.157 64.9476 10.407H64.9486ZM66.2186 11.445C66.7566 11.445 67.1796 10.984 67.1796 10.426C67.1796 9.868 66.7376 9.406 66.2176 9.406C65.6796 9.406 65.2566 9.868 65.2566 10.426C65.2566 10.984 65.6786 11.446 66.2176 11.446L66.2186 11.445ZM66.0446 11.003H65.7746V9.83H66.2566C66.3526 9.83 66.4676 9.83 66.5446 9.887C66.6406 9.945 66.6796 10.06 66.6796 10.176C66.6796 10.31 66.6026 10.426 66.4876 10.464L66.6986 10.984H66.4096L66.2376 10.522H66.0446V11.003ZM66.0446 10.349H66.1986C66.2566 10.349 66.3136 10.349 66.3526 10.33C66.3906 10.31 66.4096 10.253 66.4096 10.195C66.4096 10.157 66.3906 10.099 66.3526 10.08C66.3136 10.06 66.2376 10.06 66.1986 10.06H66.0636L66.0446 10.35V10.349ZM46.7706 1.539L46.4236 3.809C45.6736 3.405 45.1156 3.251 44.5196 3.251C42.9416 3.251 41.8256 4.867 41.8256 7.156C41.8256 8.733 42.5756 9.696 43.8076 9.696C44.3276 9.696 44.9046 9.522 45.6156 9.156L45.2506 11.542C44.4616 11.772 43.9606 11.85 43.3646 11.85C41.0766 11.85 39.6526 10.118 39.6526 7.348C39.6526 3.616 41.6146 1 44.4426 1C44.8076 1 45.1346 1.039 45.4046 1.116L46.2886 1.346C46.5196 1.443 46.5786 1.462 46.7706 1.539ZM39.7106 3.097C39.6526 3.077 39.5756 3.077 39.4986 3.077C38.8066 3.077 38.4026 3.443 37.7486 4.463L37.9406 3.173H36.0166L34.7086 11.657H36.8446C37.6136 6.463 37.8056 5.578 38.8246 5.578H38.9786C39.1716 4.559 39.4216 3.808 39.7876 3.116L39.7106 3.097ZM26.9956 11.542C26.4176 11.734 25.9556 11.83 25.4756 11.83C24.3986 11.83 23.8016 11.176 23.8016 9.964C23.8016 9.734 23.8216 9.464 23.8596 9.194L23.9936 8.368L24.0906 7.694L25.0136 1.904H27.1296L26.8796 3.154H27.9766L27.6686 5.214L26.5906 5.213L26.0336 8.753C26.0136 8.906 25.9946 9.022 25.9946 9.098C25.9946 9.541 26.2256 9.733 26.7256 9.733C26.9756 9.733 27.1486 9.714 27.3026 9.656L26.9956 11.542ZM18.6076 5.848C18.6076 6.925 19.1076 7.656 20.2236 8.214C21.0706 8.637 21.2236 8.771 21.2236 9.156C21.2236 9.676 20.8396 9.926 20.0126 9.926C19.3776 9.926 18.8006 9.83 18.1086 9.58L17.8186 11.542L17.9156 11.561L18.3006 11.638C18.4356 11.658 18.6076 11.695 18.8586 11.715C19.3586 11.753 19.7626 11.792 20.0316 11.792C22.2636 11.792 23.3016 10.888 23.3016 8.964C23.3016 7.81 22.8786 7.117 21.8016 6.598C20.9166 6.175 20.8196 6.078 20.8196 5.674C20.8196 5.213 21.1666 4.982 21.8596 4.982C22.2826 4.982 22.8396 5.04 23.3796 5.117L23.6866 3.155C23.1286 3.058 22.3016 2.982 21.8206 2.982C19.4166 2.982 18.5886 4.27 18.6076 5.848ZM63.7166 11.638H61.6966L61.7936 10.811C61.2166 11.465 60.6006 11.753 59.8316 11.753C58.2736 11.753 57.2536 10.349 57.2536 8.233C57.2536 5.405 58.8316 3.02 60.7166 3.02C61.5436 3.02 62.1586 3.385 62.7556 4.174L63.2166 1.192H65.3136L63.7176 11.638H63.7166ZM60.5816 9.656C61.5816 9.656 62.2746 8.483 62.2746 6.79C62.2746 5.713 61.8706 5.117 61.1396 5.117C60.1776 5.117 59.4856 6.31 59.4856 7.964C59.4856 9.079 59.8506 9.656 60.5816 9.656ZM33.7276 11.465C32.9976 11.695 32.3046 11.811 31.5346 11.811C29.1686 11.811 27.9186 10.503 27.9186 8.002C27.9186 5.079 29.4956 2.943 31.6306 2.943C33.3806 2.943 34.4976 4.155 34.4976 6.04C34.4976 6.656 34.4206 7.271 34.2276 8.137H29.9956C29.9766 8.272 29.9766 8.329 29.9766 8.407C29.9766 9.407 30.6116 9.907 31.8426 9.907C32.5926 9.907 33.2856 9.733 34.0546 9.368L33.7276 11.465ZM32.5356 6.405C32.5546 6.232 32.5546 6.079 32.5546 5.982C32.5546 5.29 32.1886 4.886 31.5546 4.886C30.8806 4.886 30.3996 5.425 30.2076 6.406H32.5356V6.405ZM10.0676 11.638H7.9516L9.1636 3.616L6.4316 11.638H4.9886L4.8156 3.674L3.5266 11.638H1.5456L3.1996 1.212H6.2586L6.3356 7.675L8.4126 1.212H11.7216L10.0676 11.638ZM15.5496 7.867C15.3196 7.848 15.2226 7.829 15.0696 7.829C13.8566 7.829 13.2596 8.272 13.2596 9.118C13.2596 9.638 13.5686 9.983 14.0296 9.983C14.8766 9.983 15.5116 9.118 15.5496 7.867ZM17.0886 11.638H15.3186L15.3576 10.753C14.8186 11.465 14.1076 11.773 13.1256 11.773C11.9716 11.773 11.1826 10.83 11.1826 9.464C11.1826 7.387 12.5676 6.194 14.9146 6.194C15.1646 6.194 15.4726 6.214 15.7806 6.252C15.8386 5.963 15.8576 5.848 15.8576 5.694C15.8576 5.136 15.4916 4.924 14.4916 4.924C13.8956 4.924 13.2026 5.021 12.7216 5.174L12.4516 5.27L12.2606 5.328L12.5486 3.424C13.6066 3.097 14.3186 2.962 15.0886 2.962C16.9156 2.962 17.8766 3.828 17.8766 5.444C17.8766 5.867 17.8386 6.174 17.7036 7.136L17.2806 10.156L17.2036 10.696L17.1466 11.119L17.1076 11.426L17.0876 11.638H17.0886ZM50.4436 7.867C50.2326 7.848 50.1166 7.829 49.9636 7.829C48.7516 7.829 48.1356 8.272 48.1356 9.118C48.1356 9.638 48.4436 9.983 48.9056 9.983C49.7706 9.983 50.4056 9.118 50.4436 7.867ZM51.9836 11.638H50.2136L50.2516 10.753C49.7136 11.465 49.0016 11.773 48.0206 11.773C46.8666 11.773 46.0776 10.83 46.0776 9.464C46.0776 7.387 47.4626 6.194 49.8096 6.194C50.0396 6.194 50.3666 6.214 50.6746 6.252C50.7326 5.963 50.7516 5.848 50.7516 5.694C50.7516 5.136 50.3866 4.924 49.3866 4.924C48.7896 4.924 48.0966 5.021 47.6166 5.174L47.3086 5.251L47.1166 5.309L47.4046 3.405C48.4626 3.078 49.1746 2.943 49.9446 2.943C51.7716 2.943 52.7336 3.809 52.7336 5.425C52.7336 5.848 52.6946 6.155 52.5606 7.117L52.1176 10.118L52.0596 10.657L52.0026 11.08L51.9636 11.369L51.9836 11.638ZM57.9266 3.097C57.8696 3.077 57.7926 3.077 57.7156 3.077C57.0226 3.077 56.6196 3.443 55.9656 4.463L56.1576 3.173H54.2336L52.9256 11.657H55.0606C55.8306 6.463 56.0226 5.578 57.0426 5.578H57.1966C57.3886 4.559 57.6576 3.808 58.0036 3.116L57.9266 3.097ZM49.0016 19.89C49.0016 21.814 48.4056 22.949 47.4626 22.949C46.7706 22.968 46.3666 22.199 46.3666 21.064C46.3666 19.717 46.9816 18.178 47.9436 18.178C48.7316 18.178 49.0016 19.005 49.0016 19.89ZM51.0986 19.91C51.0986 17.774 50.0396 16.1 48.0586 16.1C45.7696 16.1 44.2886 18.12 44.2886 21.102C44.2886 23.237 45.1736 24.988 47.3286 24.988C49.5016 24.988 51.0986 23.449 51.0986 19.909V19.91ZM44.9616 14.62L44.6346 16.89C43.9226 16.485 43.4226 16.331 42.8646 16.331C41.3846 16.331 40.3446 17.947 40.3446 20.236C40.3446 21.814 41.0376 22.776 42.1916 22.776C42.6916 22.776 43.2306 22.603 43.8846 22.237L43.5386 24.622C42.8076 24.853 42.3266 24.93 41.7686 24.93C39.6336 24.93 38.2866 23.199 38.2866 20.429C38.2866 16.697 40.1336 14.081 42.7686 14.081C43.1146 14.081 43.4036 14.119 43.6536 14.196L44.4616 14.427C44.7316 14.504 44.7886 14.523 44.9616 14.619V14.62ZM31.8236 16.158C31.7656 16.139 31.6886 16.139 31.6116 16.139C30.9576 16.139 30.5916 16.505 29.9766 17.524L30.1696 16.235H28.3796L27.1676 24.718H29.1496C29.8616 19.525 30.0536 18.64 30.9966 18.64C31.0536 18.64 31.0536 18.64 31.1506 18.66C31.3226 17.64 31.5736 16.89 31.9006 16.197L31.8236 16.158ZM57.7536 24.642H55.8686L55.9646 23.814C55.4266 24.468 54.8496 24.757 54.1186 24.757C52.6756 24.757 51.7136 23.353 51.7136 21.237C51.7136 18.409 53.1946 16.024 54.9456 16.024C55.7146 16.024 56.3116 16.389 56.8496 17.197L57.2926 14.215H59.2546L57.7546 24.642H57.7536ZM54.8116 22.64C55.7546 22.64 56.3896 21.467 56.3896 19.774C56.3896 18.697 56.0236 18.12 55.3316 18.12C54.4276 18.12 53.7916 19.293 53.7916 20.966C53.7916 22.082 54.1386 22.64 54.8116 22.64ZM13.2026 24.603C12.5296 24.833 11.8756 24.949 11.1636 24.949C8.9516 24.949 7.7976 23.641 7.7976 21.14C7.7976 18.236 9.2786 16.081 11.2596 16.081C12.8946 16.081 13.9336 17.274 13.9336 19.179C13.9336 19.794 13.8566 20.409 13.6836 21.275H9.7406C9.7206 21.41 9.7206 21.468 9.7206 21.545C9.7206 22.525 10.3176 23.025 11.4716 23.025C12.1826 23.025 12.8176 22.853 13.5296 22.487L13.2026 24.603ZM12.0866 19.543C12.0866 19.371 12.1066 19.217 12.1066 19.121C12.1066 18.428 11.7596 18.024 11.1636 18.024C10.5286 18.024 10.0866 18.563 9.8936 19.544H12.0866V19.543ZM36.8246 24.603C36.1516 24.833 35.4976 24.949 34.7856 24.949C32.5546 24.949 31.4006 23.641 31.4006 21.14C31.4006 18.236 32.8806 16.081 34.8626 16.081C36.4976 16.081 37.5556 17.274 37.5556 19.179C37.5556 19.794 37.4786 20.409 37.3056 21.275H33.3626C33.3426 21.41 33.3426 21.468 33.3426 21.545C33.3426 22.525 33.9396 23.025 35.0936 23.025C35.8056 23.025 36.4406 22.853 37.1516 22.487L36.8246 24.603ZM35.7096 19.543C35.7286 19.371 35.7286 19.217 35.7286 19.121C35.7286 18.428 35.3816 18.024 34.7856 18.024C34.1506 18.024 33.7086 18.563 33.5156 19.544H35.7096V19.543ZM64.5256 24.603C63.8326 24.833 63.1786 24.949 62.4856 24.949C60.2736 24.949 59.1006 23.641 59.1006 21.14C59.1006 18.236 60.5816 16.081 62.5826 16.081C64.2176 16.081 65.2566 17.274 65.2566 19.179C65.2566 19.794 65.1796 20.409 65.0066 21.275H61.0616C61.0416 21.41 61.0416 21.468 61.0416 21.545C61.0416 22.525 61.6386 23.025 62.7926 23.025C63.5046 23.025 64.1396 22.853 64.8516 22.487L64.5246 24.603H64.5256ZM63.4096 19.543C63.4096 19.371 63.4296 19.217 63.4296 19.121C63.4296 18.428 63.0826 18.024 62.4856 18.024C61.8506 18.024 61.4086 18.563 61.2156 19.544H63.4096V19.543ZM7.3166 16.543C6.9316 16.273 6.3936 16.063 5.6626 16.063C4.8546 16.063 4.2196 16.235 4.2196 17.081C4.2196 18.582 7.1436 18.024 7.1436 21.256C7.1436 24.199 5.2196 24.968 3.4696 24.968C2.6996 24.968 1.7956 24.718 1.1416 24.41L1.6216 22.256C2.0266 22.622 2.8156 22.872 3.4886 22.872C4.1236 22.872 5.0846 22.699 5.0846 21.602C5.0846 19.89 2.1616 20.525 2.1616 17.524C2.1616 14.774 3.8736 13.965 5.5276 13.965C6.4506 13.965 7.3356 14.1 7.8356 14.446L7.3156 16.543H7.3166ZM19.0116 24.603C18.6076 24.795 18.0506 24.93 17.2416 24.93C15.5116 24.93 14.4336 23.199 14.4336 21.083C14.4336 18.313 15.9916 16.12 18.2806 16.12C18.7806 16.12 19.5506 16.332 20.1466 16.678L19.7046 18.698C19.2816 18.409 18.8386 18.236 18.3776 18.236C17.3186 18.236 16.5496 19.217 16.5496 20.948C16.5496 21.948 17.1076 22.776 17.9736 22.776C18.4936 22.776 18.8576 22.66 19.3006 22.41L19.0126 24.603H19.0116ZM26.4376 22.468C26.3416 23.198 26.2446 23.911 26.1876 24.661H24.2816L24.4356 23.295H24.4156C23.8206 24.218 23.2046 24.853 22.1076 24.853C20.9156 24.853 20.2616 23.583 20.2616 21.949C20.2616 21.371 20.2996 21.064 20.4156 20.179L20.9546 16.255H23.0886L22.5126 20.198C22.4546 20.621 22.3776 21.044 22.3776 21.487C22.3776 21.987 22.6076 22.487 23.1856 22.449C24.0516 22.449 24.5706 21.391 24.7246 20.14L25.3206 16.255H27.3786L26.4366 22.468H26.4376ZM66.5066 24.565H66.1796V23.16H65.7176V22.853H66.9676V23.16H66.5066V24.565ZM68.6416 24.565H68.3336V23.141L68.0456 24.565H67.7376L67.4496 23.141V24.565H67.1416V22.853H67.6216L67.8916 24.199H67.9106L68.1796 22.853H68.6416V24.565Z" fill="#D3A562"/>
</g>
<defs>
<clipPath id="clip0_6726_1232">
<rect width="68" height="25" fill="white" transform="translate(0.965576 0.5)"/>
</clipPath>
</defs>
</svg>
