<svg width="40" height="40" viewBox="0 0 40 40" fill="none" xmlns="http://www.w3.org/2000/svg">
<rect x="0.0202637" width="39.9797" height="40" rx="12" fill="#F8F3EC"/>
<g clip-path="url(#clip0_6480_710)">
<path d="M19.0109 10C23.9747 10 28.0033 14.032 28.0033 19C28.0033 23.968 23.9747 28 19.0109 28C14.0471 28 10.0186 23.968 10.0186 19C10.0186 14.032 14.0471 10 19.0109 10ZM19.0109 26C22.8747 26 26.005 22.867 26.005 19C26.005 15.132 22.8747 12 19.0109 12C15.1462 12 12.0169 15.132 12.0169 19C12.0169 22.867 15.1462 26 19.0109 26ZM27.4888 26.071L30.3154 28.899L28.9016 30.314L26.0759 27.485L27.4888 26.071Z" fill="#322E29"/>
</g>
<defs>
<clipPath id="clip0_6480_710">
<rect width="23.9797" height="24" fill="white" transform="translate(8.02026 8)"/>
</clipPath>
</defs>
</svg>
